<?xml version="1.0" ?><svg id="Layer_1" style="enable-background:new 0 0 512 512;" version="1.1" viewBox="0 0 512 512" xml:space="preserve" xmlns="http://www.w3.org/2000/svg" xmlns:xlink="http://www.w3.org/1999/xlink"><style type="text/css">
	.st0{fill:#3A3A3A;}
</style><path class="st0" d="M68.6,167.9l0.5-0.5c26.7-26,55.4-50,85.8-71.7l11.9-8.5c9.5-7.8,23.8-1,23.8,11.3V135  c0.4,0,0.8,0.1,1.3,0.1c0.8,0.1,1.5,0.1,2.7,0.3c2.2,0.3,4.7,0.6,7.3,0.9c2.6,0.3,5.5,0.7,8.4,1.1c2.8,0.5,5.7,1,8.8,1.6  c1.5,0.3,3.1,0.6,4.8,0.9c1.6,0.3,3.3,0.7,5,1.1c3.4,0.8,6.9,1.6,10.6,2.5c3.6,1,7.4,2.1,11.3,3.3c3.9,1.2,7.9,2.6,12,4  c16.4,5.9,34.3,13.9,52.4,24.9c18.1,10.9,36.3,25,53.3,41.8c8.4,8.5,16.7,17.6,24.2,27.5c3.9,4.9,7.4,10.1,11.1,15.3  c1.8,2.6,3.4,5.4,5.1,8l2.6,4.1l2.4,4.2c12.9,22.3,22.9,47,29.1,72.9c3.2,12.9,5.2,26.2,6.5,39.5c0.3,3.4,0.6,6.7,0.9,10.1  c0.1,1.1,0.2,2.1,0.2,3.2c0,14.3-11.6,25.8-25.8,25.8c-12,0-22-8.1-24.9-19.2l0,0c0-0.2-0.1-0.5-0.2-0.8c-0.1-0.3-0.1-0.6-0.2-0.8  c-0.8-3.1-2.3-9.1-2.6-10.6c-2.4-10.5-5.3-20.7-9.1-30.5c-7.5-19.6-17.6-37.6-29.6-53.2l-2.2-2.9l-2.3-2.8c-1.6-1.9-3-3.8-4.6-5.6  c-3.3-3.5-6.4-7.1-9.8-10.3c-6.5-6.7-13.5-12.6-20.5-18c-14.1-10.7-28.4-19.1-42.3-25.1c-13.9-6.1-27.1-10.1-38.9-12.6  c-3-0.6-5.8-1.2-8.6-1.7c-2.8-0.4-5.5-0.8-8-1.2c-2.6-0.3-5.1-0.5-7.4-0.8c-1.2-0.1-2.3-0.3-3.5-0.3c-1.1-0.1-2.2-0.1-3.3-0.2  c-2.1-0.1-4.2-0.2-6.1-0.3c-1.8,0-3.3,0-4.8,0c-1.5,0-2.8,0-4,0c-0.3,0-0.7,0-1.1,0v36.6c0,12.3-14.3,19-23.8,11.3l-11.5-8.2  c-30.7-21.9-59.7-46.1-86.7-72.5C59,190.4,59,175.8,68.6,167.9z" id="XMLID_374_"/></svg>