<?xml version="1.0" ?><!DOCTYPE svg  PUBLIC '-//W3C//DTD SVG 1.1//EN'  'http://www.w3.org/Graphics/SVG/1.1/DTD/svg11.dtd'><svg enable-background="new 0 0 99.176 99.176" height="99.176px" id="Layer_1" version="1.1" viewBox="0 0 99.176 99.176" width="99.176px" xml:space="preserve" xmlns="http://www.w3.org/2000/svg" xmlns:xlink="http://www.w3.org/1999/xlink"><g><path d="M73.915,17.17   c-2.301,0-4.178,1.877-4.178,4.178v32.791c0,0.756-0.623,1.385-1.385,1.385c-0.779,0-1.405-0.629-1.405-1.385V12.996   c0-2.315-1.864-4.179-4.177-4.179c-2.301,0-4.175,1.863-4.175,4.179v38.35c0,0.766-0.63,1.385-1.388,1.385   c-0.775,0-1.405-0.619-1.405-1.385V10.202c0-2.301-1.864-4.175-4.179-4.175c-2.312,0-4.176,1.874-4.176,4.175v41.144   c0,0.766-0.627,1.385-1.403,1.385c-0.758,0-1.386-0.619-1.386-1.385V15.785c0-2.314-1.878-4.178-4.177-4.178   c-2.312,0-4.176,1.863-4.176,4.178v49.496l-5.65-7.732c-1.673-2.568-4.939-3.439-7.334-1.953c-2.383,1.504-2.967,4.799-1.319,7.371   c0,0,9.102,13.771,12.983,19.664c3.877,5.904,10.164,10.518,21.923,10.518c19.457,0,21.199-15.023,21.199-19.514V21.348   C78.108,19.047,76.228,17.17,73.915,17.17z" fill="#FFFFFF" stroke="#58595B" stroke-miterlimit="10" stroke-width="3.4835"/><path d="M73.915,17.17   c-2.301,0-4.178,1.877-4.178,4.178v32.791c0,0.756-0.623,1.385-1.385,1.385c-0.779,0-1.405-0.629-1.405-1.385V12.996   c0-2.315-1.864-4.179-4.177-4.179c-2.301,0-4.175,1.863-4.175,4.179v38.35c0,0.766-0.63,1.385-1.388,1.385   c-0.775,0-1.405-0.619-1.405-1.385V10.202c0-2.301-1.864-4.175-4.179-4.175c-2.312,0-4.176,1.874-4.176,4.175v41.144   c0,0.766-0.627,1.385-1.403,1.385c-0.758,0-1.386-0.619-1.386-1.385V15.785c0-2.314-1.878-4.178-4.177-4.178   c-2.312,0-4.176,1.863-4.176,4.178v49.496l-5.65-7.732c-1.673-2.568-4.939-3.439-7.334-1.953c-2.383,1.504-2.967,4.799-1.319,7.371   c0,0,9.102,13.771,12.983,19.664c3.877,5.904,10.164,10.518,21.923,10.518c19.457,0,21.199-15.023,21.199-19.514V21.348   C78.108,19.047,76.228,17.17,73.915,17.17z" fill="#FFFFFF" stroke="#58595B" stroke-linecap="round" stroke-linejoin="round" stroke-miterlimit="10"/></g></svg>