<?xml version="1.0" ?><!DOCTYPE svg  PUBLIC '-//W3C//DTD SVG 1.1//EN'  'http://www.w3.org/Graphics/SVG/1.1/DTD/svg11.dtd'><svg enable-background="new 0 0 99.176 99.176" height="99.176px" id="Layer_1" version="1.1" viewBox="0 0 99.176 99.176" width="99.176px" xml:space="preserve" xmlns="http://www.w3.org/2000/svg" xmlns:xlink="http://www.w3.org/1999/xlink"><g><path d="M61.643,22.73c-1.746,1.497-1.949,4.146-0.451,5.891l4.703,5.482   c0.492,0.573,0.428,1.456-0.148,1.952c-0.592,0.507-1.475,0.437-1.969-0.137l-8.838-10.301c-1.505-1.756-4.137-1.956-5.891-0.451   c-1.746,1.499-1.953,4.133-0.446,5.89l7.019,8.181c0.5,0.582,0.424,1.462-0.152,1.956c-0.589,0.506-1.47,0.445-1.968-0.137   l-10.06-11.725c-1.498-1.745-4.135-1.953-5.891-0.446c-1.753,1.505-1.949,4.142-0.451,5.887L47.16,46.498   c0.498,0.58,0.427,1.457-0.162,1.963c-0.576,0.494-1.455,0.434-1.955-0.146l-23.156-26.99c-1.506-1.756-4.145-1.947-5.891-0.45   c-1.755,1.505-1.956,4.133-0.449,5.889l32.23,37.567l-9.766,3.102c-2.949,0.918-6.082,2.299-6.93,4.984   c-0.828,2.691,0.873,5.576,3.799,6.455c0,0,16.409-2.459,23.191-0.514c6.788,1.957,14.562,1.363,23.486-6.293   c14.77-12.672,6.309-25.207,3.385-28.616L67.546,23.17C66.047,21.425,63.396,21.226,61.643,22.73z" fill="#AD9A9F" stroke="#58595B" stroke-miterlimit="10"/><path d="M61.643,22.73   c-1.746,1.497-1.949,4.146-0.451,5.891l4.703,5.482c0.492,0.573,0.428,1.456-0.148,1.952c-0.592,0.507-1.475,0.437-1.969-0.137   l-8.838-10.301c-1.505-1.756-4.137-1.956-5.891-0.451c-1.746,1.499-1.953,4.133-0.446,5.89l7.019,8.181   c0.5,0.582,0.424,1.462-0.152,1.956c-0.589,0.506-1.47,0.445-1.968-0.137l-10.06-11.725c-1.498-1.745-4.135-1.953-5.891-0.446   c-1.753,1.505-1.949,4.142-0.451,5.887L47.16,46.498c0.498,0.58,0.427,1.457-0.162,1.963c-0.576,0.494-1.455,0.434-1.955-0.146   l-23.156-26.99c-1.506-1.756-4.145-1.947-5.891-0.45c-1.755,1.505-1.956,4.133-0.449,5.889l32.23,37.567l-9.766,3.102   c-2.949,0.918-6.082,2.299-6.93,4.984c-0.828,2.691,0.873,5.576,3.799,6.455c0,0,16.409-2.459,23.191-0.514   c6.788,1.957,14.562,1.363,23.486-6.293c14.77-12.672,6.309-25.207,3.385-28.616L67.546,23.17   C66.047,21.425,63.396,21.226,61.643,22.73z" fill="#FFFFFF" stroke="#58595B" stroke-miterlimit="10" stroke-width="3.4835"/><path d="M61.643,22.73   c-1.746,1.497-1.949,4.146-0.451,5.891l4.703,5.482c0.492,0.573,0.428,1.456-0.148,1.952c-0.592,0.507-1.475,0.437-1.969-0.137   l-8.838-10.301c-1.505-1.756-4.137-1.956-5.891-0.451c-1.746,1.499-1.953,4.133-0.446,5.89l7.019,8.181   c0.5,0.582,0.424,1.462-0.152,1.956c-0.589,0.506-1.47,0.445-1.968-0.137l-10.06-11.725c-1.498-1.745-4.135-1.953-5.891-0.446   c-1.753,1.505-1.949,4.142-0.451,5.887L47.16,46.498c0.498,0.58,0.427,1.457-0.162,1.963c-0.576,0.494-1.455,0.434-1.955-0.146   l-23.156-26.99c-1.506-1.756-4.145-1.947-5.891-0.45c-1.755,1.505-1.956,4.133-0.449,5.889l32.23,37.567l-9.766,3.102   c-2.949,0.918-6.082,2.299-6.93,4.984c-0.828,2.691,0.873,5.576,3.799,6.455c0,0,16.409-2.459,23.191-0.514   c6.788,1.957,14.562,1.363,23.486-6.293c14.77-12.672,6.309-25.207,3.385-28.616L67.546,23.17   C66.047,21.425,63.396,21.226,61.643,22.73z" fill="#FFFFFF" stroke="#58595B" stroke-linecap="round" stroke-linejoin="round" stroke-miterlimit="10"/><path clip-rule="evenodd" d="M21.309,52.15c0.883,0.107,1.605-0.852,0.505-1.422   c-0.616-4.029-2.313-7.682-3.279-11.586c-0.646-0.42-0.972,0.078-1.415,0.242c0.842,3.074,2.021,6.035,2.803,9.131   c-3.582-4.102-6.432-8.817-8.228-13.794c-0.261-0.724-0.526-1.757-0.81-2.152c0.126-0.251,0.016-0.306-0.047-0.669   c-0.521-0.515-1.281-0.399-1.676,0.021c0.355,1.209,0.862,2.36,1.35,3.523c0.484,1.15,0.9,2.36,1.57,3.444   c-0.03,0.448,0.471,0.709,0.463,1.15c0.22,0.032,0.201,0.46,0.414,0.293c1.111,2.993,3.651,5.974,5.664,8.761   c-2.032-1.373-4.674-3.518-7.068-4.905c-0.489-0.205-1.322,0.332-1.258,0.686c0.078,0.432,1.473,1.383,2.074,1.836   C15.104,48.787,18.283,51.324,21.309,52.15L21.309,52.15z" fill="#939598" fill-rule="evenodd"/><path clip-rule="evenodd" d="M21.906,53.875c0.625-0.633,1.787-0.328,1.277,0.803   c2.018,3.541,2.953,7.459,4.616,11.121c-0.247,0.729-0.81,0.541-1.259,0.688c-1.246-2.936-2.158-5.986-3.467-8.9   c-0.266,5.438,0.424,10.904,2.105,15.922c0.244,0.73,0.676,1.705,0.699,2.191c0.255,0.119,0.203,0.23,0.378,0.555   c-0.089,0.725-0.755,1.107-1.327,1.021c-0.471-1.168-0.79-2.389-1.129-3.6c-0.334-1.205-0.758-2.412-0.903-3.678   c-0.302-0.332-0.071-0.85-0.351-1.189c0.15-0.162-0.128-0.484,0.143-0.486c-0.983-3.035-0.842-6.951-0.991-10.383   c-0.744,2.334-1.484,5.656-2.502,8.23c-0.257,0.465-1.243,0.557-1.414,0.242c-0.205-0.387,0.298-1.996,0.489-2.727   C19.125,60.361,20.047,56.398,21.906,53.875L21.906,53.875z" fill="#939598" fill-rule="evenodd"/></g></svg>