<?xml version="1.0" encoding="utf-8"?>
<!-- Generator: Adobe Illustrator 16.0.0, SVG Export Plug-In . SVG Version: 6.00 Build 0)  -->
<!DOCTYPE svg PUBLIC "-//W3C//DTD SVG 1.1//EN" "http://www.w3.org/Graphics/SVG/1.1/DTD/svg11.dtd">
<svg version="1.1" id="Layer_1" xmlns="http://www.w3.org/2000/svg" xmlns:xlink="http://www.w3.org/1999/xlink" x="0px" y="0px"
	 width="99.176px" height="99.176px" viewBox="0 0 99.176 99.176" enable-background="new 0 0 99.176 99.176" xml:space="preserve">
<g>
	<path display="none" fill="#FFFFFF" stroke="#58595B" stroke-width="3.4835" stroke-miterlimit="10" d="M73.915,17.17
		c-2.302,0-4.179,1.877-4.179,4.178v32.791c0,0.756-0.623,1.385-1.385,1.385c-0.778,0-1.404-0.629-1.404-1.385V12.996
		c0-2.315-1.864-4.179-4.178-4.179c-2.301,0-4.174,1.863-4.174,4.179v38.35c0,0.766-0.631,1.385-1.389,1.385
		c-0.775,0-1.405-0.619-1.405-1.385V10.202c0-2.301-1.864-4.175-4.179-4.175c-2.312,0-4.176,1.874-4.176,4.175v41.144
		c0,0.766-0.627,1.385-1.403,1.385c-0.758,0-1.386-0.619-1.386-1.385V15.785c0-2.314-1.878-4.178-4.177-4.178
		c-2.312,0-4.176,1.863-4.176,4.178v49.496l-5.65-7.732c-1.673-2.568-4.939-3.439-7.334-1.953c-2.383,1.504-2.967,4.799-1.319,7.371
		c0,0,9.102,13.771,12.983,19.664c3.877,5.904,10.164,10.518,21.923,10.518c19.457,0,21.199-15.022,21.199-19.514V21.348
		C78.107,19.047,76.229,17.17,73.915,17.17z"/>
	<path fill="#FFFFFF" stroke="#58595B" stroke-linecap="round" stroke-linejoin="round" stroke-miterlimit="10" d="M73.915,17.17
		c-2.302,0-4.179,1.877-4.179,4.178v32.791c0,0.756-0.623,1.385-1.385,1.385c-0.778,0-1.404-0.629-1.404-1.385V12.996
		c0-2.315-1.864-4.179-4.178-4.179c-2.301,0-4.174,1.863-4.174,4.179v38.35c0,0.766-0.631,1.385-1.389,1.385
		c-0.775,0-1.405-0.619-1.405-1.385V10.202c0-2.301-1.864-4.175-4.179-4.175c-2.312,0-4.176,1.874-4.176,4.175v41.144
		c0,0.766-0.627,1.385-1.403,1.385c-0.758,0-1.386-0.619-1.386-1.385V35.088c-6.07-10.333-19.415,18-19.415,18
		c0-2.314-1.878-4.178-4.177-4.178c-2.312,0-4.176,1.863-4.176,4.178c0,0,13.466-30.167,19.415-18s0,30.194,0,30.194l-5.65-7.732
		c-1.673-2.568-4.939-3.439-7.334-1.953c-2.383,1.504-2.967,4.799-1.319,7.371c0,0,9.102,13.771,12.983,19.664
		c3.877,5.904,10.164,10.518,21.923,10.518c19.457,0,21.199-15.022,21.199-19.514V21.348C78.107,19.047,76.229,17.17,73.915,17.17z"
		/>
</g>
</svg>
